<svg width="258" height="258" viewBox="0 0 258 258" fill="none" xmlns="http://www.w3.org/2000/svg">
<g filter="url(#filter0_d_218_353)">
<rect x="4" width="250" height="250" rx="125" fill="#D81823"/>
<path d="M245.804 118.453C245.797 117.049 245.734 113.876 245.096 110.717C244.728 108.893 243.025 105.27 242.572 104.562C242.572 104.44 242.572 104.205 242.557 103.873C242.487 101.861 241.864 96.2398 237.489 89.9078C234.356 85.3818 224.821 71.6084 199.696 65.0258L199.593 65H199.578L193.202 71.4647L189.601 75.1061C189.468 75.202 189.129 75.471 188.978 75.7659C188.908 75.8986 188.871 76.0386 188.912 76.1713C188.934 76.2118 188.956 76.2524 188.993 76.2819C189 76.2892 189.011 76.2966 189.019 76.3077L189.07 80.2477L189.28 80.2219C189.439 80.1961 206.013 78.696 216.834 83.2183C227.84 87.8181 235.197 91.5517 236.693 100.725C236.306 100.666 235.926 100.622 235.547 100.589C235.458 100.582 235.366 100.571 235.278 100.563C235.141 100.552 235.001 100.545 234.865 100.537C231.386 100.32 228.142 101.079 225.186 102.822C215.755 108.384 212.29 122.205 212.235 122.434C211.807 122.81 211.339 123.234 210.819 123.702C210.005 124.413 209.113 125.202 208.166 126.094C207.248 126.96 206.327 127.775 205.435 128.486C204.543 129.197 203.702 129.802 202.939 130.299C202.177 130.771 201.602 131.036 201.152 131.036C200.732 131.036 200.415 130.959 200.179 130.826C199.943 130.719 199.836 130.325 199.836 129.721C199.836 129.378 200.098 128.619 200.625 127.461C201.152 126.304 201.808 124.911 202.623 123.333C203.411 121.73 204.277 120.049 205.169 118.313C206.087 116.552 206.957 114.871 207.742 113.319C208.531 111.793 209.187 110.456 209.74 109.324C210.263 108.167 210.528 107.485 210.528 107.194C210.528 106.958 210.344 106.457 209.975 105.668C209.633 104.879 209.161 104.065 208.638 103.224C208.11 102.41 207.48 101.647 206.798 100.991C206.091 100.335 205.405 99.9919 204.775 99.9919C204.487 99.9919 204.038 100.125 203.489 100.335C202.936 100.571 202.254 100.836 201.465 101.149C200.676 101.466 199.759 101.779 198.76 102.096C197.787 102.413 196.685 102.649 195.528 102.834C195.789 101.861 195.922 100.969 195.922 100.125C195.922 97.8099 195.214 96.1035 193.795 94.9978C192.35 93.8921 190.46 93.3171 188.149 93.3171C186.417 93.3171 184.998 93.6341 183.866 94.209C182.764 94.7877 181.868 95.4953 181.264 96.3136C180.634 97.1281 180.188 97.9684 179.952 98.864C179.716 99.7302 179.583 100.493 179.583 101.123C179.583 101.938 179.742 102.804 180.029 103.674C180.317 104.566 180.711 105.41 181.264 106.173C181.791 106.961 182.473 107.699 183.287 108.355C184.102 108.985 185.02 109.486 186.074 109.799C185.259 111.403 184.342 113.113 183.343 114.845C182.344 116.581 181.293 118.369 180.217 120.13C179.428 121.391 178.64 122.629 177.825 123.809C177.088 124.491 176.329 125.228 175.514 125.991C174.305 127.148 173.122 128.224 171.969 129.223C170.867 130.196 169.971 130.694 169.315 130.694C169.238 130.694 169.182 130.668 169.131 130.616C169.053 130.513 168.972 130.196 169.208 129.33C169.444 128.408 169.864 127.174 170.417 125.677C171.021 124.207 171.678 122.522 172.44 120.709C173.229 118.896 173.963 117.057 174.648 115.269C175.356 113.481 175.96 111.771 176.436 110.249C176.907 108.672 177.143 107.437 177.143 106.541C177.143 105.804 176.933 105.2 176.487 104.754C176.067 104.308 175.514 103.939 174.884 103.703C174.254 103.442 173.598 103.283 172.967 103.202C172.311 103.15 171.759 103.125 171.338 103.125C170.601 103.125 169.761 103.335 168.817 103.781C168.423 103.386 167.951 103.018 167.373 102.705C166.794 102.388 166.005 102.233 165.036 102.233C162.198 102.233 159.467 102.76 156.868 103.836C154.266 104.886 151.852 106.28 149.696 108.016C147.544 109.752 145.598 111.749 143.917 113.957C142.236 116.165 140.843 118.453 139.818 120.739C139.531 121.369 139.295 121.973 139.056 122.604L139.03 122.629C138.005 123.602 136.903 124.704 135.772 125.887C134.64 127.071 133.538 128.173 132.462 129.146C131.386 130.144 130.519 130.616 129.86 130.616C129.808 130.616 129.782 130.616 129.782 130.59C129.705 130.513 129.705 130.248 129.967 129.54C130.254 128.777 130.674 127.778 131.227 126.544C131.806 125.283 132.436 123.835 133.118 122.287C133.8 120.709 134.456 119.054 135.06 117.37C135.665 115.689 136.162 114.031 136.505 112.427C136.874 110.85 137.003 109.405 136.874 108.17C136.741 106.936 136.321 105.911 135.587 105.148C134.88 104.385 133.697 103.991 132.093 103.991C130.936 103.991 129.731 104.278 128.496 104.831C127.261 105.384 126.052 106.117 124.869 106.987C123.712 107.879 122.558 108.882 121.427 109.958C120.376 111.034 119.403 112.088 118.512 113.113C118.696 112.088 118.773 111.038 118.799 110.01C118.825 108.904 118.666 107.905 118.301 107.013C117.933 106.147 117.328 105.41 116.514 104.831C115.699 104.278 114.542 103.991 113.097 103.991C111.837 103.991 110.55 104.334 109.26 105.015C108 105.671 106.714 106.541 105.427 107.618C104.167 108.668 102.932 109.851 101.749 111.193C100.647 112.402 99.6224 113.636 98.6752 114.871C99.1212 113.795 99.5671 112.741 100.043 111.716C100.621 110.507 101.093 109.457 101.487 108.535C101.933 107.562 102.302 106.748 102.589 106.066C102.877 105.384 103.01 104.934 103.01 104.698C103.01 103.961 102.667 103.357 101.959 102.859C101.251 102.358 100.411 101.967 99.4381 101.65C98.4909 101.363 97.4958 101.149 96.4712 101.02C95.4723 100.887 94.632 100.81 94.0276 100.81C93.2904 100.81 92.4501 101.599 91.5839 103.125C90.7178 104.651 89.8259 106.593 88.956 108.908C88.0641 111.222 87.1943 113.769 86.3834 116.504C85.7532 118.579 85.1745 120.606 84.6512 122.548C84.5738 122.6 84.4927 122.681 84.4153 122.758C83.3391 123.731 82.1818 124.808 80.9471 125.991C79.7382 127.148 78.5293 128.224 77.4014 129.223C76.2994 130.196 75.378 130.694 74.7219 130.694C74.6445 130.694 74.5893 130.668 74.5635 130.616C74.4603 130.513 74.405 130.196 74.6151 129.33C74.8509 128.408 75.2711 127.174 75.8498 125.677C76.4284 124.207 77.1103 122.522 77.8732 120.709C78.6361 118.896 79.3954 117.082 80.0809 115.269C80.7886 113.481 81.3672 111.771 81.8427 110.249C82.3403 108.697 82.5798 107.437 82.5798 106.541C82.5798 105.804 82.3697 105.2 81.9238 104.754C81.4778 104.308 80.9507 103.939 80.3205 103.703C79.6902 103.442 79.0342 103.283 78.3781 103.202C77.7479 103.15 77.195 103.125 76.7491 103.125C76.0414 103.125 75.2011 103.335 74.2281 103.781C73.8595 103.386 73.3619 103.018 72.8091 102.705C72.2304 102.388 71.4417 102.233 70.4724 102.233C67.6344 102.233 64.8775 102.76 62.2754 103.836C59.7028 104.886 57.285 106.28 55.1325 108.016C52.9506 109.752 51.0083 111.749 49.3276 113.957C47.6469 116.165 46.2795 118.453 45.2549 120.739C44.2045 123.024 43.5226 125.313 43.1799 127.546C42.8371 129.754 42.9182 131.751 43.4158 133.487C43.8875 135.223 44.8605 136.642 46.2795 137.693C47.6985 138.743 49.6667 139.296 52.1103 139.296C54.5539 139.296 56.9422 138.614 59.0173 137.247C61.0149 135.905 62.9056 134.25 64.5863 132.253C64.3504 133.384 64.2178 134.409 64.2178 135.301C64.2178 137.14 64.7153 138.481 65.7399 139.296C66.7646 140.085 68.1578 140.505 69.89 140.505C71.3348 140.505 72.8312 140.085 74.3313 139.27C75.8019 138.43 77.2724 137.376 78.6656 136.141C79.9519 134.984 81.1608 133.723 82.2887 132.356C82.1302 133.17 82.0528 133.723 82.0528 133.985C82.0528 134.799 82.4471 135.64 83.2101 136.51C83.9988 137.376 84.9165 138.139 86.0222 138.85C87.0985 139.532 88.23 140.111 89.4094 140.531C90.5925 140.951 91.6429 141.187 92.5091 141.187C92.7191 141.187 92.9292 141.054 93.1909 140.818C93.4268 140.582 93.5595 140.372 93.5595 140.188C93.5595 139.952 93.4526 139.635 93.272 139.266C93.0877 138.872 92.9845 138.426 92.9845 137.899C92.9845 136.742 93.272 135.297 93.8248 133.613C94.3777 131.958 95.0853 130.144 95.9773 128.302C96.8692 126.437 97.8422 124.568 98.8927 122.78C99.9431 120.967 100.993 119.312 101.967 117.838C102.94 116.393 103.857 115.184 104.646 114.289C105.435 113.367 106.013 112.921 106.378 112.921C106.43 112.921 106.485 112.921 106.537 112.973C106.588 113.08 106.669 113.316 106.511 113.92C106.352 114.657 106.039 115.601 105.619 116.758C105.173 117.941 104.672 119.283 104.097 120.805C103.518 122.331 102.969 123.934 102.442 125.589C101.915 127.244 101.469 128.928 101.1 130.583C100.732 132.238 100.548 133.79 100.548 135.183C100.548 135.997 100.916 136.76 101.598 137.442C102.306 138.124 103.146 138.677 104.119 139.152C105.092 139.598 106.091 139.941 107.112 140.177C108.162 140.439 109.028 140.571 109.684 140.571C109.946 140.571 110.182 140.464 110.421 140.284C110.632 140.099 110.764 139.864 110.764 139.628C110.764 139.576 110.713 139.418 110.421 138.865C110.211 138.47 110.108 137.918 110.108 137.21C110.108 136.104 110.396 134.711 111 133.082C111.605 131.453 112.393 129.717 113.311 127.929C114.258 126.116 115.309 124.303 116.411 122.541C117.539 120.753 118.67 119.124 119.746 117.705C120.822 116.312 121.821 115.129 122.687 114.237C123.579 113.371 124.235 112.921 124.656 112.921C124.707 112.921 124.762 112.921 124.814 112.973C124.921 113.106 124.921 113.419 124.814 113.92C124.681 114.657 124.42 115.601 124.051 116.784C123.708 117.993 123.262 119.36 122.739 120.912C122.212 122.438 121.714 124.067 121.243 125.722C120.797 127.376 120.376 129.061 120.06 130.69C119.717 132.319 119.532 133.845 119.532 135.186C119.532 137.026 120.111 138.393 121.187 139.208C122.264 140.022 123.734 140.416 125.522 140.416C126.966 140.416 128.437 139.996 129.882 139.182C131.301 138.341 132.72 137.287 134.032 136.027C135.318 134.792 136.553 133.425 137.659 131.954C137.736 132.481 137.843 133.005 137.976 133.48C138.447 135.216 139.42 136.635 140.839 137.685C142.258 138.736 144.227 139.289 146.696 139.289C149.165 139.289 151.502 138.607 153.577 137.239C155.601 135.898 157.466 134.243 159.172 132.245C158.91 133.377 158.778 134.401 158.778 135.293C158.778 137.132 159.301 138.474 160.3 139.289C161.324 140.077 162.718 140.498 164.45 140.498C165.895 140.498 167.391 140.077 168.887 139.263C170.384 138.422 171.829 137.368 173.222 136.134C174.615 134.899 175.927 133.506 177.136 132.006C177.136 131.98 177.162 131.98 177.162 131.954C177.32 131.877 177.423 131.77 177.556 131.637C178.186 131.058 179.134 130.008 180.343 128.482C181.577 126.956 182.915 125.143 184.36 123.12C185.805 121.07 187.275 118.888 188.72 116.574C190.191 114.259 191.506 111.974 192.66 109.74C193.552 109.505 194.392 109.32 195.207 109.136C195.996 108.952 196.652 108.874 197.179 108.874C197.886 108.874 198.281 109.033 198.413 109.401C198.52 109.796 198.572 110.164 198.572 110.507C198.572 110.795 198.336 111.373 197.864 112.188C197.393 113.054 196.762 114.053 196.051 115.236C195.343 116.445 194.529 117.786 193.714 119.257C192.874 120.728 192.085 122.279 191.352 123.882C190.644 125.46 190.04 127.089 189.564 128.744C189.067 130.373 188.827 131.95 188.827 133.421C188.827 135.946 189.483 137.836 190.795 139.02C192.107 140.228 193.998 140.833 196.467 140.833C197.912 140.833 199.409 140.439 200.96 139.65C202.508 138.861 204.008 137.836 205.398 136.628C206.817 135.419 208.184 134.051 209.415 132.555C210.204 131.589 210.941 130.671 211.605 129.757C211.804 132.043 212.46 134.46 214.033 136.37C215.946 138.688 218.898 139.915 222.831 140.037C223.067 140.044 223.303 140.048 223.546 140.048C223.804 140.048 224.873 139.974 225.131 139.963C225.301 139.956 226.701 139.827 226.871 139.816C226.919 139.816 229.543 139.447 229.591 139.443C228.474 140.73 225.477 143.568 224.412 144.452C221.305 147.043 217.638 149.889 213.035 152.697C208.969 155.178 204.134 157.625 198.937 159.892C193.331 162.335 186.969 164.407 180.269 166.283C173.388 168.21 164.122 170.016 153.216 171.17C146.994 171.829 139.542 172.11 133.28 172.11C130.287 172.11 127.873 172.021 125.64 171.918C122.684 171.782 120.093 171.601 117.303 171.358C114.509 171.118 111.652 170.809 107.904 170.27C105.343 169.902 102.261 169.456 98.9148 168.748C88.1563 166.474 86.4129 165.973 75.636 162.287C75.5291 162.25 66.5508 159.154 56.3304 153.198C54.1079 151.905 52.4604 150.799 50.9014 149.708C48.2845 147.873 46.0326 146.019 42.5201 143.015C42.4649 142.989 39.0187 139.945 35.897 135.854C33.0995 132.19 29.9446 127.627 27.8327 119.666C28.6767 120.728 29.7972 121.479 30.6707 121.616C30.8292 121.642 30.995 121.667 31.1461 121.667C31.1719 121.667 31.194 121.667 31.2161 121.667C32.4066 121.605 33.2543 121.302 33.6708 120.798C33.6782 120.786 33.6856 120.779 33.6892 120.775L33.7114 120.757L33.6966 120.739L41.068 113.386C41.1749 113.334 41.4365 113.15 41.5397 112.833C41.6466 112.516 41.5398 112.151 41.2781 111.757C40.6736 110.809 40.5962 110.496 40.5962 110.496L40.5446 110.153L38.9966 111.653C38.3922 111.642 37.972 111.558 37.5887 111.347C37.5813 111.344 37.5739 111.336 37.5629 111.333C37.5223 111.311 37.4818 111.285 37.4413 111.259C37.4044 111.233 37.3675 111.211 37.3307 111.182C37.3233 111.174 37.316 111.171 37.3049 111.163C36.9216 110.876 36.542 110.441 35.9891 109.807C35.8601 109.656 35.7127 109.49 35.5579 109.313C35.2888 108.996 34.9755 108.646 34.607 108.259C34.548 108.196 34.4927 108.145 34.4338 108.086C34.3932 108.045 34.3527 108.001 34.3084 107.964C34.2642 107.92 34.22 107.879 34.1757 107.835C32.285 106.051 30.5269 105.841 29.823 105.841C35.1819 94.327 42.6676 89.5172 42.745 89.4914L43.0619 89.2813L41.2486 88.6252L41.3555 88.5183C45.2697 89.624 50.2859 90.8587 56.5921 90.8587C59.6917 90.8587 63.0789 90.5713 66.8088 89.8083C67.0963 89.7567 73.7968 88.1535 74.0843 83.4468C74.2686 80.2145 74.217 78.7144 74.0585 78.3459C73.9516 76.6652 73.3509 74.6933 72.0093 72.3271C71.9835 72.3013 69.75 68.6193 67.0705 66.6217C66.9636 66.5148 66.4918 66.0946 65.3382 66.6733C65.2055 66.6991 53.098 70.746 40.9095 79.1346C38.0457 77.2401 33.3981 71.8812 32.8452 71.1956C32.4767 70.7239 31.9275 70.8271 31.7174 70.9339L24.1802 73.4586L24.2871 73.6687C24.2871 73.6687 24.394 73.853 24.5746 74.1405L23.8669 78.2942C23.6826 78.8213 23.631 79.9233 24.6814 80.3693C24.733 80.3951 30.3832 84.1545 35.5837 86.4949V86.5465C35.5321 86.5281 35.4768 86.5133 35.4178 86.4986C35.2004 86.4396 34.9203 86.4028 34.6438 86.4875C34.6254 86.4949 34.607 86.5023 34.5885 86.5096C34.2937 86.6018 34.0504 86.8266 33.8772 87.1509C33.7703 87.2726 33.2101 87.8807 32.3661 88.9532C32.3587 88.9643 32.3513 88.9717 32.3403 88.9827C32.2592 89.0822 32.1781 89.1891 32.0933 89.2997C32.0565 89.3513 32.0159 89.3992 31.9791 89.4508C31.9238 89.5245 31.8648 89.5982 31.8095 89.6756C31.7432 89.7604 31.6805 89.8452 31.6142 89.9336C31.5847 89.9742 31.5552 90.0147 31.5257 90.0553C31.1129 90.6155 30.6596 91.2531 30.1768 91.9645C30.1399 92.0197 30.1031 92.0713 30.0662 92.1303C29.9814 92.2556 29.8967 92.3846 29.8119 92.5173C29.7492 92.6131 29.6866 92.709 29.6203 92.8085C29.5502 92.919 29.4765 93.0296 29.4065 93.1439C29.3254 93.2729 29.2406 93.4019 29.1559 93.5345C29.0969 93.6304 29.0379 93.7262 28.9753 93.822C28.8757 93.9842 28.7725 94.1464 28.673 94.3159C28.6251 94.3933 28.5772 94.4707 28.533 94.5481C28.415 94.7471 28.2934 94.9498 28.1718 95.1562C28.1386 95.2115 28.1091 95.2631 28.0759 95.3184C27.9322 95.5617 27.7885 95.8123 27.6447 96.0703C27.6337 96.0924 27.6226 96.1108 27.6079 96.133C25.8609 99.2289 24.0143 103.099 22.4553 107.706C22.3152 107.717 22.0978 107.747 21.8914 107.842C21.8914 107.842 21.8877 107.842 21.884 107.842C21.8435 107.861 21.8066 107.883 21.7661 107.905C21.6039 108.001 21.4638 108.145 21.4012 108.366C21.3017 108.62 19.7426 110.385 17.7745 112.549C16.079 114.414 14.0814 116.57 12.4487 118.317C12.4302 118.336 12.4118 118.358 12.3934 118.376C12.3528 118.402 12.2754 118.453 12.2017 118.538C12.1907 118.546 12.1796 118.553 12.1685 118.56C12.1612 118.568 12.1169 118.616 12.1096 118.627C12.0948 118.645 12.058 118.719 12.0506 118.734L12.0359 118.759L12.069 118.774C12.0543 118.807 12.0359 118.84 12.0248 118.877C11.9474 119.194 12.0506 119.559 12.3418 119.983C12.4192 120.141 12.972 121.269 13.8382 121.428H14.0482C14.4684 121.428 14.8886 121.192 15.3087 120.746C16.7314 119.102 19.2045 116.109 19.7426 115.461C20.0743 115.391 20.3913 115.343 20.7009 115.313C20.723 115.862 20.7967 117.222 21.0437 119.157C21.8508 125.519 24.5082 138.065 33.2175 148.131C34.2568 149.332 35.3294 150.482 36.4277 151.588C36.9548 152.148 37.4855 152.697 38.0199 153.235C55.1952 169.437 83.9362 180.944 117.439 183.756C119.673 183.889 122.002 183.981 124.438 184.04C127.427 184.221 130.556 184.357 133.814 184.42C195.583 184.294 245.616 154.827 245.811 118.446M72.0167 107.006C72.0167 107.61 71.6739 108.635 70.992 110.054C70.336 111.473 69.444 113.076 68.3641 114.812C67.2879 116.548 66.079 118.387 64.7669 120.252C63.429 122.117 62.1132 123.853 60.8269 125.405C59.5406 126.931 58.3059 128.243 57.1744 129.241C56.0466 130.24 55.1768 130.767 54.5723 130.767C54.3364 130.767 54.1521 130.69 54.0453 130.531C53.8094 130.27 53.7283 129.768 53.8094 129.006C53.9679 127.822 54.388 126.326 55.1215 124.564C55.8291 122.803 56.828 120.857 58.0369 118.781C59.2716 116.732 60.6095 114.786 62.0543 112.999C63.4732 111.237 64.9954 109.74 66.5213 108.557C68.0435 107.374 69.5436 106.77 70.9589 106.77C71.2758 106.77 71.6407 106.821 72.0093 106.903V107.009L72.0167 107.006ZM166.58 107.006C166.58 107.61 166.237 108.635 165.581 110.054C164.9 111.473 164.004 113.076 162.928 114.812C161.851 116.548 160.643 118.387 159.33 120.252C158.018 122.117 156.677 123.853 155.39 125.405C154.104 126.931 152.869 128.243 151.738 129.241C150.636 130.24 149.74 130.767 149.136 130.767C148.9 130.767 148.741 130.69 148.612 130.531C148.377 130.27 148.296 129.768 148.402 129.006C148.535 127.822 148.981 126.326 149.689 124.564C150.396 122.803 151.395 120.857 152.604 118.781C153.839 116.732 155.177 114.786 156.621 112.999C158.066 111.237 159.563 109.74 161.089 108.557C162.611 107.374 164.111 106.77 165.526 106.77C165.869 106.77 166.208 106.821 166.577 106.903V107.009L166.58 107.006ZM188.989 102.959C187.622 102.749 186.756 102.38 186.361 101.908C185.941 101.437 185.757 100.777 185.757 99.9882C185.757 99.4611 185.89 98.9636 186.177 98.5176C186.439 98.0974 186.914 97.8615 187.57 97.8615C188.278 97.8615 188.672 98.1232 188.753 98.5987C188.86 99.1257 189.041 99.7302 189.28 100.412C189.413 100.884 189.306 101.754 188.993 102.963M33.4828 117.679L39.1551 112.055H39.2325V112.048C39.2325 112.048 39.2362 112.048 39.2399 112.048V111.967L40.3345 110.872C40.4414 111.082 40.622 111.425 40.9906 111.978C41.1749 112.265 41.2523 112.531 41.1749 112.741C41.1233 112.951 40.8874 113.058 40.8874 113.058L40.8616 113.083L33.6634 120.259C33.5308 119.813 33.3207 118.999 33.2691 118.523C33.1622 117.945 33.4534 117.709 33.4792 117.683M15.0176 120.492C14.6232 120.938 14.2546 121.122 13.9156 121.07C13.1784 120.938 12.6809 119.836 12.6809 119.836L12.6551 119.784C12.445 119.467 12.3381 119.18 12.3934 118.969C12.3934 118.958 12.4007 118.944 12.4044 118.933H12.4081C15.1245 117.163 17.3285 116.095 19.1787 115.604C18.3384 116.633 16.2855 119.073 15.0176 120.495M52.0292 81.6924C53.3782 81.201 55.3131 80.6052 57.8341 79.9049L59.935 79.3004C67.6823 77.1443 69.7315 78.8545 69.7315 78.8545C70.7303 79.986 71.0694 80.959 70.7304 81.7477C70.6788 81.8546 70.6235 81.9578 70.5461 82.0647C66.0274 78.0952 54.0748 83.1962 52.9985 83.668C51.4211 83.4579 50.0316 83.1667 48.8227 82.8534C50.319 82.3264 51.2921 81.9615 52.0255 81.6961M70.3102 82.3485C68.6295 83.9776 63.875 84.1361 63.8234 84.1361C59.8576 84.2945 56.522 84.1103 53.7357 83.7675C56.3894 82.6913 66.4218 78.9319 70.3102 82.3485ZM24.8399 80.0376C23.8411 79.6174 24.2097 78.4601 24.2355 78.3827L24.8915 74.6233C26.598 77.1222 32.1929 84.0071 43.3052 86.6091C48.2956 87.7923 52.7074 88.2382 56.4668 88.2382C63.5322 88.2382 68.3125 86.6607 70.2844 85.426C71.5965 84.6115 73.1998 83.2183 73.83 80.9848C73.8042 81.6151 73.7784 82.4296 73.7231 83.4284C73.4614 87.8439 66.7867 89.4471 66.7351 89.4729C54.2848 91.9718 45.4576 89.366 39.6527 87.6338L39.2841 87.5269C33.6118 85.8462 24.9689 80.115 24.8362 80.0339M38.3295 87.8181L38.2705 87.8402H38.2669L38.3295 87.8181ZM37.8467 87.6411L36.354 86.9409L36.3171 86.9224L37.8467 87.6411ZM35.9449 86.6829L35.9375 86.7418H35.9264L35.9449 86.6829ZM26.8634 109.213C27.2319 107.348 29.6461 96.859 38.7644 88.8685L38.8971 88.7616L38.5285 88.1571L38.8971 88.0245L38.7902 87.7628C38.9229 87.7886 39.0519 87.8402 39.1846 87.8955L39.5532 87.9729C39.9991 88.1313 40.4709 88.2603 40.9721 88.393L40.6036 88.8132L42.2327 89.3918C40.6036 90.5233 32.9595 96.4094 28.1533 108.845L26.867 109.213H26.8634ZM216.963 82.8756C206.717 78.5891 191.377 79.669 189.435 79.8275L189.384 76.4956C189.586 76.5436 189.818 76.5472 190.017 76.5435C190.043 76.5435 190.076 76.5435 190.106 76.5435C190.146 76.5435 190.191 76.5399 190.239 76.5362C190.393 76.5251 190.592 76.5141 190.832 76.4956C193.604 76.2929 196.309 76.2524 198.952 76.3666C208.022 76.761 216.304 79.0166 223.646 83.082C223.653 83.082 223.657 83.0893 223.664 83.093C223.885 83.2146 224.103 83.34 224.316 83.4616C224.519 83.5795 224.722 83.6975 224.921 83.8154C224.928 83.8191 224.936 83.8228 224.943 83.8265C237.721 91.4116 238.96 99.6528 239.085 101.23C238.414 101.061 237.74 100.917 237.069 100.792V100.788L237.062 100.733C235.565 91.3231 228.131 87.5379 216.967 82.8829M228.264 110.249C228.19 110.15 228.124 110.043 228.068 109.932C228.068 109.94 228.024 109.84 227.98 109.726L228.091 109.497C229.358 106.91 231.511 105.598 234.482 105.598C236.107 105.598 237.552 106.007 238.267 106.25L238.51 106.335C238.499 106.383 238.488 106.423 238.477 106.471C238.473 106.482 238.466 106.493 238.462 106.504C238.429 106.652 238.396 106.792 238.359 106.932C237.85 108.812 237.095 110.01 236.347 110.772C236.133 110.979 235.915 111.145 235.709 111.285C234.791 111.886 234.01 111.9 233.921 111.9C233.921 111.9 233.84 111.908 233.704 111.915C232.808 111.941 229.469 111.926 228.253 110.253M228.205 107.032C228.256 106.873 229.362 103.902 233.302 103.902C234.168 103.902 235.167 104.061 236.324 104.404C237.113 104.64 237.482 104.982 238.348 106.033C237.662 105.8 236.177 105.369 234.489 105.369C232.174 105.369 229.473 106.176 227.895 109.398C227.737 108.742 227.844 107.953 228.209 107.032M225.19 134.991C225.142 134.991 220.874 134.453 219.89 129.717C219.827 129.404 219.776 129.068 219.746 128.718C219.684 128.08 219.676 127.41 219.713 126.72C219.713 126.695 219.713 126.669 219.713 126.643C219.713 126.625 219.713 126.602 219.717 126.584C220.034 121.605 222.614 115.763 223.133 114.631C223.2 114.676 223.266 114.712 223.332 114.757C229.344 118.59 233.509 118.251 235.959 117.263C238.89 116.084 240.592 113.61 241.289 111.558C241.495 112.446 241.672 113.529 241.536 114.639C241.26 116.865 241.079 117.923 240.548 120.3C240.548 120.3 240.482 120.554 240.482 120.558C240.456 120.639 240.456 120.676 240.427 120.757C240.393 120.849 240.393 120.904 240.36 120.997C239.111 124.712 238.801 126.661 235.071 132.455C234.482 133.373 233.181 134.154 230.954 134.965C229.193 135.607 225.234 134.998 225.186 134.991" fill="white"/>
</g>
<defs>
<filter id="filter0_d_218_353" x="0" y="0" width="258" height="258" filterUnits="userSpaceOnUse" color-interpolation-filters="sRGB">
<feFlood flood-opacity="0" result="BackgroundImageFix"/>
<feColorMatrix in="SourceAlpha" type="matrix" values="0 0 0 0 0 0 0 0 0 0 0 0 0 0 0 0 0 0 127 0" result="hardAlpha"/>
<feOffset dy="4"/>
<feGaussianBlur stdDeviation="2"/>
<feComposite in2="hardAlpha" operator="out"/>
<feColorMatrix type="matrix" values="0 0 0 0 0 0 0 0 0 0 0 0 0 0 0 0 0 0 0.25 0"/>
<feBlend mode="normal" in2="BackgroundImageFix" result="effect1_dropShadow_218_353"/>
<feBlend mode="normal" in="SourceGraphic" in2="effect1_dropShadow_218_353" result="shape"/>
</filter>
</defs>
</svg>
