<svg width="500" height="500" viewBox="0 0 500 500" fill="none" xmlns="http://www.w3.org/2000/svg">
<g filter="url(#filter0_d_218_352)">
<path d="M483.985 237.492C483.97 234.683 483.845 228.337 482.57 222.019C481.833 218.371 478.427 211.124 477.521 209.709C477.521 209.466 477.521 208.994 477.491 208.331C477.351 204.306 476.105 193.065 467.355 180.401C461.09 171.349 442.02 143.802 391.769 130.637L391.563 130.585H391.534L378.781 143.514L371.579 150.797C371.314 150.989 370.636 151.527 370.334 152.117C370.193 152.382 370.12 152.662 370.201 152.928C370.245 153.009 370.289 153.09 370.363 153.149C370.378 153.163 370.4 153.178 370.415 153.2L370.518 161.08L370.938 161.029C371.255 160.977 404.404 157.977 426.046 167.022C448.057 176.221 462.77 183.688 465.763 202.036C464.989 201.918 464.23 201.829 463.471 201.763C463.294 201.748 463.11 201.726 462.933 201.711C462.66 201.689 462.38 201.674 462.107 201.66C455.148 201.225 448.662 202.743 442.75 206.23C423.886 217.353 416.957 244.996 416.847 245.453C415.992 246.205 415.056 247.053 414.016 247.989C412.387 249.411 410.603 250.989 408.709 252.773C406.873 254.505 405.031 256.134 403.247 257.557C401.463 258.979 399.782 260.188 398.256 261.183C396.73 262.127 395.58 262.658 394.681 262.658C393.841 262.658 393.207 262.503 392.735 262.238C392.263 262.024 392.05 261.235 392.05 260.026C392.05 259.341 392.573 257.822 393.627 255.507C394.681 253.193 395.993 250.406 397.622 247.252C399.2 244.045 400.932 240.684 402.716 237.212C404.551 233.688 406.291 230.327 407.861 227.224C409.439 224.172 410.751 221.496 411.856 219.233C412.903 216.918 413.434 215.555 413.434 214.972C413.434 214.501 413.065 213.498 412.328 211.921C411.643 210.343 410.699 208.714 409.652 207.033C408.598 205.404 407.338 203.878 405.974 202.566C404.559 201.254 403.188 200.569 401.927 200.569C401.352 200.569 400.453 200.834 399.355 201.254C398.249 201.726 396.885 202.257 395.308 202.883C393.73 203.517 391.895 204.144 389.897 204.778C387.951 205.412 385.747 205.883 383.432 206.252C383.956 204.306 384.221 202.522 384.221 200.834C384.221 196.205 382.806 192.792 379.968 190.58C377.078 188.369 373.297 187.219 368.675 187.219C365.21 187.219 362.372 187.853 360.109 189.003C357.905 190.16 356.114 191.576 354.905 193.212C353.645 194.841 352.753 196.522 352.281 198.313C351.809 200.045 351.544 201.571 351.544 202.832C351.544 204.461 351.861 206.193 352.436 207.933C353.011 209.717 353.8 211.405 354.905 212.93C355.959 214.508 357.323 215.982 358.952 217.294C360.581 218.555 362.417 219.557 364.525 220.184C362.896 223.39 361.06 226.811 359.063 230.275C357.065 233.747 354.964 237.322 352.812 240.846C351.234 243.367 349.657 245.844 348.028 248.202C346.553 249.566 345.035 251.04 343.406 252.566C340.988 254.881 338.622 257.033 336.315 259.031C334.111 260.977 332.319 261.972 331.007 261.972C330.852 261.972 330.742 261.921 330.639 261.817C330.484 261.611 330.322 260.977 330.793 259.245C331.265 257.402 332.106 254.932 333.211 251.94C334.42 248.999 335.732 245.63 337.258 242.003C338.836 238.376 340.303 234.698 341.674 231.123C343.089 227.548 344.298 224.128 345.249 221.083C346.192 217.928 346.664 215.459 346.664 213.668C346.664 212.193 346.244 210.984 345.352 210.092C344.512 209.201 343.406 208.463 342.145 207.992C340.885 207.468 339.573 207.151 338.312 206.989C337 206.886 335.895 206.834 335.054 206.834C333.58 206.834 331.899 207.255 330.012 208.146C329.223 207.358 328.28 206.621 327.123 205.994C325.965 205.36 324.388 205.05 322.449 205.05C316.773 205.05 311.311 206.105 306.114 208.257C300.91 210.358 296.082 213.144 291.769 216.616C287.465 220.088 283.573 224.083 280.211 228.499C276.85 232.914 274.063 237.492 272.014 242.062C271.439 243.323 270.968 244.532 270.488 245.792L270.437 245.844C268.388 247.79 266.184 249.994 263.92 252.36C261.657 254.726 259.453 256.93 257.301 258.876C255.149 260.874 253.416 261.817 252.097 261.817C251.994 261.817 251.942 261.817 251.942 261.766C251.787 261.611 251.787 261.08 252.311 259.665C252.886 258.139 253.726 256.141 254.832 253.672C255.989 251.151 257.249 248.254 258.613 245.158C259.977 242.003 261.289 238.693 262.498 235.325C263.707 231.963 264.702 228.646 265.387 225.44C266.125 222.285 266.383 219.395 266.125 216.926C265.859 214.456 265.019 212.407 263.552 210.881C262.137 209.355 259.77 208.567 256.564 208.567C254.249 208.567 251.839 209.142 249.369 210.247C246.9 211.353 244.482 212.82 242.116 214.56C239.801 216.343 237.494 218.348 235.231 220.501C233.13 222.653 231.184 224.762 229.4 226.811C229.769 224.762 229.924 222.661 229.975 220.604C230.027 218.393 229.71 216.395 228.98 214.611C228.243 212.879 227.034 211.405 225.405 210.247C223.776 209.142 221.461 208.567 218.572 208.567C216.051 208.567 213.478 209.252 210.898 210.616C208.377 211.928 205.805 213.668 203.232 215.82C200.711 217.921 198.242 220.287 195.875 222.97C193.671 225.388 191.622 227.857 189.728 230.327C190.62 228.174 191.512 226.066 192.462 224.017C193.62 221.599 194.563 219.498 195.352 217.656C196.244 215.709 196.981 214.08 197.556 212.717C198.131 211.353 198.396 210.454 198.396 209.982C198.396 208.508 197.711 207.299 196.296 206.304C194.88 205.301 193.2 204.52 191.254 203.886C189.359 203.311 187.369 202.883 185.32 202.625C183.322 202.36 181.641 202.205 180.432 202.205C178.958 202.205 177.277 203.783 175.545 206.834C173.813 209.886 172.029 213.771 170.289 218.4C168.506 223.029 166.766 228.123 165.144 233.592C163.884 237.742 162.726 241.797 161.68 245.681C161.525 245.785 161.363 245.947 161.208 246.102C159.055 248.048 156.741 250.2 154.271 252.566C151.854 254.881 149.436 257.033 147.18 259.031C144.976 260.977 143.133 261.972 141.821 261.972C141.666 261.972 141.556 261.921 141.504 261.817C141.298 261.611 141.187 260.977 141.607 259.245C142.079 257.402 142.92 254.932 144.077 251.94C145.234 248.999 146.598 245.63 148.124 242.003C149.65 238.376 151.168 234.75 152.539 231.123C153.954 227.548 155.112 224.128 156.063 221.083C157.058 217.98 157.537 215.459 157.537 213.668C157.537 212.193 157.117 210.984 156.225 210.092C155.333 209.201 154.279 208.463 153.018 207.992C151.758 207.468 150.446 207.151 149.134 206.989C147.873 206.886 146.767 206.834 145.875 206.834C144.46 206.834 142.779 207.255 140.833 208.146C140.096 207.358 139.101 206.621 137.995 205.994C136.838 205.36 135.261 205.05 133.322 205.05C127.646 205.05 122.132 206.105 116.928 208.257C111.783 210.358 106.947 213.144 102.642 216.616C98.2786 220.088 94.3939 224.083 91.0325 228.499C87.6712 232.914 84.9364 237.492 82.8871 242.062C80.7863 246.632 79.4226 251.21 78.7371 255.677C78.0515 260.092 78.2137 264.088 79.2088 267.56C80.1524 271.032 82.0984 273.87 84.9364 275.97C87.7744 278.071 91.7107 279.177 96.5979 279.177C101.485 279.177 106.262 277.813 110.412 275.078C114.407 272.395 118.189 269.086 121.55 265.09C121.078 267.353 120.813 269.402 120.813 271.186C120.813 274.865 121.808 277.548 123.857 279.177C125.906 280.754 128.693 281.595 132.157 281.595C135.047 281.595 138.04 280.754 141.04 279.125C143.981 277.445 146.922 275.336 149.709 272.867C152.281 270.552 154.699 268.031 156.955 265.297C156.638 266.926 156.483 268.031 156.483 268.555C156.483 270.184 157.272 271.865 158.797 273.604C160.375 275.336 162.21 276.862 164.422 278.285C166.574 279.649 168.837 280.806 171.196 281.646C173.562 282.487 175.663 282.958 177.395 282.958C177.816 282.958 178.236 282.693 178.759 282.221C179.231 281.75 179.496 281.329 179.496 280.961C179.496 280.489 179.282 279.855 178.921 279.118C178.553 278.329 178.346 277.437 178.346 276.383C178.346 274.069 178.921 271.179 180.027 267.81C181.133 264.501 182.548 260.874 184.332 257.188C186.116 253.458 188.062 249.721 190.163 246.146C192.263 242.519 194.364 239.209 196.31 236.261C198.256 233.371 200.092 230.953 201.669 229.162C203.247 227.319 204.404 226.427 205.134 226.427C205.237 226.427 205.348 226.427 205.451 226.531C205.554 226.744 205.716 227.216 205.399 228.425C205.082 229.899 204.456 231.786 203.615 234.101C202.723 236.467 201.721 239.15 200.571 242.195C199.414 245.247 198.315 248.453 197.261 251.763C196.207 255.073 195.315 258.441 194.578 261.751C193.841 265.061 193.472 268.164 193.472 270.95C193.472 272.58 194.209 274.105 195.573 275.469C196.988 276.833 198.669 277.939 200.615 278.889C202.561 279.781 204.559 280.467 206.601 280.939C208.702 281.462 210.434 281.727 211.746 281.727C212.269 281.727 212.741 281.514 213.22 281.152C213.64 280.784 213.906 280.312 213.906 279.84C213.906 279.737 213.803 279.42 213.22 278.314C212.8 277.526 212.594 276.42 212.594 275.005C212.594 272.793 213.169 270.007 214.378 266.749C215.586 263.491 217.164 260.019 218.999 256.444C220.894 252.817 222.995 249.19 225.199 245.667C227.454 242.092 229.717 238.833 231.87 235.995C234.022 233.209 236.02 230.843 237.752 229.059C239.536 227.327 240.848 226.427 241.688 226.427C241.792 226.427 241.902 226.427 242.005 226.531C242.219 226.796 242.219 227.423 242.005 228.425C241.74 229.899 241.217 231.786 240.48 234.153C239.794 236.57 238.902 239.305 237.855 242.409C236.801 245.46 235.806 248.718 234.863 252.028C233.971 255.338 233.13 258.707 232.496 261.965C231.811 265.223 231.442 268.275 231.442 270.958C231.442 274.636 232.6 277.371 234.752 279C236.904 280.629 239.846 281.418 243.421 281.418C246.31 281.418 249.251 280.577 252.141 278.948C254.979 277.268 257.817 275.16 260.441 272.639C263.014 270.169 265.483 267.434 267.695 264.493C267.849 265.547 268.063 266.594 268.329 267.545C269.272 271.017 271.218 273.855 274.056 275.956C276.894 278.056 280.83 279.162 285.769 279.162C290.708 279.162 295.381 277.798 299.532 275.064C303.578 272.381 307.308 269.071 310.721 265.075C310.198 267.339 309.933 269.388 309.933 271.172C309.933 274.85 310.979 277.533 312.977 279.162C315.026 280.74 317.813 281.58 321.277 281.58C324.167 281.58 327.159 280.74 330.152 279.111C333.145 277.43 336.035 275.322 338.821 272.852C341.607 270.383 344.232 267.597 346.649 264.596C346.649 264.545 346.701 264.545 346.701 264.493C347.018 264.338 347.224 264.125 347.49 263.859C348.75 262.702 350.645 260.601 353.062 257.549C355.532 254.498 358.208 250.871 361.097 246.824C363.987 242.726 366.928 238.362 369.818 233.732C372.759 229.103 375.39 224.533 377.697 220.066C379.481 219.594 381.162 219.226 382.791 218.857C384.369 218.488 385.681 218.334 386.735 218.334C388.15 218.334 388.939 218.651 389.204 219.388C389.418 220.177 389.521 220.914 389.521 221.599C389.521 222.174 389.049 223.331 388.106 224.961C387.162 226.693 385.902 228.69 384.479 231.057C383.064 233.474 381.435 236.158 379.806 239.099C378.125 242.04 376.548 245.143 375.081 248.35C373.665 251.505 372.456 254.763 371.506 258.073C370.51 261.331 370.031 264.486 370.031 267.427C370.031 272.476 371.343 276.258 373.968 278.624C376.592 281.042 380.373 282.251 385.312 282.251C388.202 282.251 391.195 281.462 394.298 279.885C397.394 278.307 400.394 276.258 403.173 273.84C406.011 271.422 408.746 268.687 411.208 265.695C412.785 263.763 414.26 261.928 415.586 260.1C415.984 264.67 417.296 269.506 420.444 273.324C424.27 277.961 430.174 280.415 438.039 280.659C438.511 280.673 438.983 280.681 439.47 280.681C439.986 280.681 442.123 280.533 442.639 280.511C442.978 280.496 445.779 280.238 446.119 280.216C446.214 280.216 451.463 279.479 451.559 279.472C449.325 282.044 443.332 287.72 441.202 289.489C434.988 294.672 427.653 300.362 418.446 305.979C410.316 310.94 400.645 315.835 390.251 320.368C379.039 325.255 366.316 329.398 352.915 333.15C339.153 337.005 320.621 340.617 298.809 342.924C286.366 344.244 271.461 344.804 258.937 344.804C252.952 344.804 248.124 344.627 243.657 344.421C237.745 344.148 232.563 343.787 226.983 343.3C221.395 342.821 215.682 342.202 208.186 341.126C203.063 340.389 196.9 339.497 190.207 338.081C168.69 333.533 165.203 332.531 143.649 325.16C143.436 325.086 125.479 318.894 105.038 306.982C100.593 304.394 97.2982 302.183 94.1801 300.001C88.9464 296.33 84.4425 292.622 77.4176 286.615C77.307 286.563 70.4148 280.474 64.1713 272.292C58.5764 264.965 52.2665 255.839 48.0427 239.917C49.7307 242.04 51.9717 243.544 53.7187 243.817C54.0356 243.868 54.3673 243.92 54.6696 243.92C54.7212 243.92 54.7654 243.92 54.8096 243.92C57.1906 243.794 58.886 243.19 59.7189 242.18C59.7337 242.158 59.7484 242.143 59.7558 242.136L59.8 242.099L59.7705 242.062L74.5133 227.356C74.727 227.253 75.2504 226.884 75.4568 226.251C75.6706 225.617 75.4568 224.887 74.9335 224.098C73.7245 222.204 73.5697 221.577 73.5697 221.577L73.4665 220.892L70.3706 223.892C69.1617 223.87 68.3213 223.7 67.5547 223.28C67.54 223.272 67.5252 223.258 67.5031 223.25C67.422 223.206 67.3409 223.155 67.2599 223.103C67.1861 223.051 67.1124 223.007 67.0387 222.948C67.024 222.933 67.0092 222.926 66.9871 222.911C66.2205 222.336 65.4612 221.467 64.3555 220.199C64.0975 219.896 63.8027 219.565 63.4931 219.211C62.955 218.577 62.3284 217.877 61.5913 217.103C61.4733 216.977 61.3628 216.874 61.2448 216.756C61.1637 216.675 61.0827 216.587 60.9942 216.513C60.9057 216.424 60.8173 216.343 60.7288 216.255C56.9473 212.687 53.4312 212.267 52.0232 212.267C62.7412 189.239 77.7124 179.619 77.8672 179.568L78.5012 179.147L74.8745 177.835L75.0882 177.622C82.9166 179.833 92.9491 182.302 105.561 182.302C111.761 182.302 118.535 181.727 125.995 180.202C126.57 180.098 139.971 176.892 140.546 167.479C140.915 161.014 140.811 158.014 140.494 157.277C140.281 153.915 139.079 149.972 136.396 145.239C136.344 145.188 131.877 137.824 126.518 133.828C126.304 133.615 125.361 132.774 123.054 133.932C122.788 133.983 98.5734 142.077 74.1963 158.854C68.4688 155.065 59.1735 144.347 58.0678 142.976C57.3306 142.033 56.2323 142.239 55.8121 142.453L40.7377 147.502L40.9515 147.922C40.9515 147.922 41.1652 148.291 41.5264 148.866L40.1111 157.173C39.7425 158.228 39.6394 160.432 41.7402 161.324C41.8434 161.375 53.1437 168.894 63.5447 173.575V173.678C63.4415 173.641 63.3309 173.612 63.213 173.582C62.7781 173.464 62.2178 173.39 61.665 173.56C61.6281 173.575 61.5913 173.589 61.5544 173.604C60.9647 173.789 60.4782 174.238 60.1317 174.887C59.918 175.13 58.7975 176.346 57.1095 178.491C57.0947 178.514 57.08 178.528 57.0579 178.55C56.8957 178.749 56.7335 178.963 56.564 179.184C56.4903 179.288 56.4092 179.383 56.3355 179.487C56.2249 179.634 56.107 179.781 55.9964 179.936C55.8637 180.106 55.7384 180.275 55.6057 180.452C55.5468 180.533 55.4878 180.614 55.4288 180.695C54.6032 181.816 53.6966 183.091 52.7309 184.514C52.6572 184.624 52.5835 184.728 52.5098 184.846C52.3402 185.096 52.1707 185.354 52.0011 185.62C51.8758 185.811 51.7505 186.003 51.6178 186.202C51.4778 186.423 51.3303 186.644 51.1903 186.873C51.0281 187.131 50.8586 187.389 50.689 187.654C50.5711 187.846 50.4531 188.037 50.3278 188.229C50.1288 188.553 49.9224 188.878 49.7234 189.217C49.6275 189.372 49.5317 189.526 49.4433 189.681C49.2074 190.079 48.9641 190.485 48.7209 190.897C48.6545 191.008 48.5956 191.111 48.5292 191.222C48.2417 191.708 47.9542 192.21 47.6668 192.726C47.6446 192.77 47.6225 192.807 47.5931 192.851C44.099 199.043 40.406 206.783 37.2879 215.997C37.0078 216.019 36.5729 216.078 36.1601 216.27C36.1601 216.27 36.1527 216.27 36.1453 216.27C36.0642 216.307 35.9905 216.351 35.9094 216.395C35.5851 216.587 35.305 216.874 35.1797 217.316C34.9806 217.825 31.8626 221.356 27.9262 225.683C24.5354 229.413 20.5402 233.725 17.2746 237.219C17.2378 237.256 17.2009 237.3 17.1641 237.337C17.083 237.389 16.9282 237.492 16.7807 237.661C16.7586 237.676 16.7365 237.691 16.7144 237.706C16.6997 237.72 16.6112 237.816 16.5965 237.838C16.567 237.875 16.4933 238.023 16.4785 238.052L16.449 238.104L16.5154 238.133C16.4859 238.2 16.449 238.266 16.4269 238.34C16.2721 238.973 16.4785 239.703 17.0609 240.551C17.2157 240.868 18.3214 243.124 20.0536 243.441H20.4738C21.3141 243.441 22.1545 242.969 22.9948 242.077C25.8401 238.789 30.7863 232.804 31.8626 231.506C32.526 231.366 33.1599 231.27 33.7791 231.211C33.8233 232.31 33.9708 235.03 34.4646 238.9C36.079 251.623 41.3937 276.715 58.8123 296.846C60.891 299.249 63.0361 301.549 65.2327 303.76C66.2868 304.881 67.3483 305.979 68.4172 307.055C102.768 339.46 160.25 362.473 227.255 368.098C231.722 368.363 236.381 368.547 241.254 368.665C247.232 369.027 253.49 369.299 260.006 369.425C383.543 369.174 483.609 310.24 484 237.477M136.411 214.596C136.411 215.805 135.725 217.855 134.361 220.692C133.049 223.53 131.265 226.737 129.106 230.209C126.953 233.681 124.535 237.359 121.911 241.089C119.235 244.819 116.604 248.291 114.031 251.394C111.459 254.446 108.989 257.07 106.726 259.068C104.471 261.066 102.731 262.12 101.522 262.12C101.05 262.12 100.682 261.965 100.468 261.648C99.9961 261.124 99.8339 260.122 99.9961 258.596C100.313 256.23 101.153 253.237 102.62 249.714C104.036 246.19 106.033 242.298 108.451 238.148C110.92 234.049 113.596 230.157 116.486 226.582C119.324 223.059 122.368 220.066 125.42 217.7C128.464 215.334 131.464 214.125 134.295 214.125C134.929 214.125 135.659 214.228 136.396 214.39V214.604L136.411 214.596ZM325.538 214.596C325.538 215.805 324.852 217.855 323.54 220.692C322.176 223.53 320.385 226.737 318.233 230.209C316.08 233.681 313.662 237.359 311.038 241.089C308.414 244.819 305.731 248.291 303.158 251.394C300.586 254.446 298.116 257.07 295.853 259.068C293.649 261.066 291.858 262.12 290.649 262.12C290.177 262.12 289.86 261.965 289.602 261.648C289.131 261.124 288.968 260.122 289.182 258.596C289.448 256.23 290.339 253.237 291.755 249.714C293.17 246.19 295.168 242.298 297.586 238.148C300.055 234.049 302.731 230.157 305.62 226.582C308.51 223.059 311.503 220.066 314.554 217.7C317.599 215.334 320.599 214.125 323.43 214.125C324.115 214.125 324.793 214.228 325.53 214.39V214.604L325.538 214.596ZM370.356 206.503C367.621 206.082 365.889 205.345 365.1 204.402C364.26 203.458 363.891 202.139 363.891 200.561C363.891 199.507 364.156 198.512 364.731 197.62C365.255 196.78 366.206 196.308 367.518 196.308C368.933 196.308 369.722 196.831 369.884 197.782C370.098 198.836 370.459 200.045 370.938 201.409C371.203 202.353 370.99 204.092 370.363 206.51M59.343 235.944L70.6875 224.695H70.8423V224.68C70.8423 224.68 70.8497 224.68 70.8571 224.68V224.518L73.0464 222.329C73.2602 222.749 73.6214 223.435 74.3585 224.54C74.7271 225.115 74.8819 225.646 74.7271 226.066C74.6239 226.486 74.1521 226.7 74.1521 226.7L74.1005 226.752L59.7042 241.104C59.4388 240.212 59.0187 238.583 58.9155 237.632C58.7017 236.475 59.284 236.003 59.3356 235.951M22.4125 241.568C21.6237 242.46 20.8866 242.829 20.2084 242.726C18.7342 242.46 17.739 240.256 17.739 240.256L17.6874 240.153C17.2673 239.519 17.0535 238.944 17.1641 238.524C17.1641 238.502 17.1788 238.472 17.1862 238.45H17.1935C22.6262 234.912 27.0343 232.774 30.7347 231.794C29.0541 233.85 24.9482 238.73 22.4125 241.576M96.4357 163.97C99.1336 162.987 103.004 161.795 108.046 160.395L112.247 159.186C127.742 154.874 131.84 158.294 131.84 158.294C133.838 160.557 134.516 162.503 133.838 164.08C133.735 164.294 133.624 164.501 133.469 164.714C124.432 156.775 100.527 166.977 98.3744 167.921C95.2194 167.501 92.4404 166.918 90.0226 166.292C93.0154 165.238 94.9615 164.508 96.4284 163.977M132.998 165.282C129.636 168.54 120.127 168.857 120.024 168.857C112.092 169.174 105.421 168.805 99.8487 168.12C105.156 165.967 125.221 158.449 132.998 165.282ZM42.0572 160.66C40.0595 159.82 40.7966 157.505 40.8482 157.35L42.1603 149.832C45.5733 154.829 56.763 168.599 78.9877 173.803C88.9685 176.169 97.792 177.061 105.311 177.061C119.442 177.061 129.002 173.906 132.946 171.437C135.57 169.808 138.777 167.022 140.037 162.555C139.986 163.815 139.934 165.444 139.824 167.442C139.3 176.273 125.951 179.479 125.847 179.531C100.947 184.529 83.2926 179.317 71.6827 175.853L70.9455 175.639C59.601 172.277 42.3152 160.815 42.0498 160.653M69.0364 176.221L68.9184 176.265H68.911L69.0364 176.221ZM68.0707 175.867L65.0853 174.467L65.0116 174.43L68.0707 175.867ZM64.2671 173.951L64.2523 174.069H64.2302L64.2671 173.951ZM46.104 219.012C46.8412 215.282 51.6694 194.303 69.9062 178.322L70.1715 178.108L69.4344 176.899L70.1715 176.634L69.9578 176.11C70.2232 176.162 70.4811 176.265 70.7465 176.376L71.4836 176.531C72.3756 176.848 73.3191 177.106 74.3216 177.371L73.5845 178.211L76.8426 179.369C73.5845 181.632 58.2963 193.404 48.684 218.275L46.1114 219.012H46.104ZM426.304 166.336C405.812 157.763 375.132 159.923 371.248 160.24L371.144 153.576C371.55 153.672 372.014 153.679 372.412 153.672C372.464 153.672 372.53 153.672 372.589 153.672C372.67 153.672 372.759 153.665 372.855 153.657C373.164 153.635 373.562 153.613 374.041 153.576C379.585 153.171 384.995 153.09 390.28 153.318C408.421 154.107 424.985 158.618 439.669 166.749C439.683 166.749 439.691 166.764 439.705 166.771C440.148 167.014 440.583 167.265 441.01 167.508C441.416 167.744 441.821 167.98 442.219 168.216C442.234 168.223 442.249 168.231 442.263 168.238C467.82 183.408 470.297 199.891 470.547 203.045C469.206 202.706 467.857 202.419 466.515 202.168V202.161L466.5 202.05C463.508 183.231 448.64 175.661 426.312 166.351M448.905 221.083C448.758 220.884 448.625 220.67 448.514 220.449C448.514 220.464 448.426 220.265 448.337 220.036L448.558 219.579C451.094 214.405 455.399 211.781 461.34 211.781C464.591 211.781 467.481 212.599 468.911 213.085L469.397 213.255C469.375 213.351 469.353 213.432 469.331 213.528C469.324 213.55 469.309 213.572 469.301 213.594C469.235 213.889 469.169 214.169 469.095 214.449C468.078 218.208 466.567 220.604 465.07 222.13C464.643 222.543 464.208 222.874 463.795 223.155C461.96 224.356 460.397 224.386 460.22 224.386C460.22 224.386 460.058 224.4 459.785 224.415C457.994 224.467 451.315 224.437 448.883 221.091M448.787 214.648C448.89 214.331 451.102 208.39 458.982 208.39C460.714 208.39 462.711 208.707 465.026 209.392C466.604 209.864 467.341 210.55 469.073 212.65C467.702 212.186 464.731 211.324 461.355 211.324C456.726 211.324 451.323 212.938 448.168 219.38C447.851 218.068 448.065 216.491 448.794 214.648M442.757 270.567C442.661 270.567 434.125 269.491 432.157 260.019C432.032 259.392 431.929 258.721 431.87 258.021C431.744 256.746 431.73 255.404 431.803 254.026C431.803 253.974 431.803 253.923 431.803 253.871C431.803 253.834 431.803 253.79 431.811 253.753C432.445 243.794 437.605 232.111 438.644 229.848C438.777 229.936 438.909 230.01 439.042 230.098C451.065 237.765 459.394 237.086 464.296 235.111C470.157 232.752 473.562 227.806 474.955 223.7C475.368 225.477 475.722 227.644 475.449 229.862C474.896 234.315 474.535 236.43 473.474 241.185C473.474 241.185 473.341 241.694 473.341 241.701C473.289 241.863 473.289 241.937 473.23 242.099C473.164 242.283 473.164 242.394 473.098 242.578C470.599 250.008 469.98 253.908 462.52 265.496C461.34 267.331 458.738 268.894 454.286 270.516C450.763 271.798 442.846 270.582 442.75 270.567" fill="#D81823"/>
</g>
<defs>
<filter id="filter0_d_218_352" x="-4" y="0" width="508" height="508" filterUnits="userSpaceOnUse" color-interpolation-filters="sRGB">
<feFlood flood-opacity="0" result="BackgroundImageFix"/>
<feColorMatrix in="SourceAlpha" type="matrix" values="0 0 0 0 0 0 0 0 0 0 0 0 0 0 0 0 0 0 127 0" result="hardAlpha"/>
<feOffset dy="4"/>
<feGaussianBlur stdDeviation="2"/>
<feComposite in2="hardAlpha" operator="out"/>
<feColorMatrix type="matrix" values="0 0 0 0 0 0 0 0 0 0 0 0 0 0 0 0 0 0 0.25 0"/>
<feBlend mode="normal" in2="BackgroundImageFix" result="effect1_dropShadow_218_352"/>
<feBlend mode="normal" in="SourceGraphic" in2="effect1_dropShadow_218_352" result="shape"/>
</filter>
</defs>
</svg>
